<svg width="46" height="37" viewBox="0 0 46 37" fill="none" xmlns="http://www.w3.org/2000/svg">
<path d="M37.1477 8.80952H44.2234C45.1978 8.80952 45.9924 8.41378 45.9924 7.92857V0.880952C45.9924 0.395724 45.1977 0 44.2234 0H33.6098C22.8821 0 14.1515 4.34798 14.1515 9.69048V14.1657H1.76894C0.794607 14.1657 0 14.5615 0 15.0467V22.0238C0 22.509 0.794642 22.9048 1.76894 22.9048H12.9212V36.119C12.9212 36.6043 13.7158 37 14.6901 37H29.4599C30.4342 37 31.2288 36.6043 31.2288 36.119V22.9048H40.5334C41.3384 22.9048 42.0467 22.6363 42.2505 22.244L45.9405 15.1964C46.0821 14.9315 45.9681 14.651 45.6295 14.4342C45.2944 14.2191 44.7796 14.0901 44.2337 14.0901H31.8512V11.4472C31.8512 9.98985 34.2316 8.80435 37.158 8.80435L37.1477 8.80952ZM30.0719 15.8571H41.9327L39.1652 21.1429H29.4538C28.4795 21.1429 27.6848 21.5386 27.6848 22.0238V35.2381H16.453V22.0238C16.453 21.5386 15.6583 21.1429 14.684 21.1429H3.53177V15.9276H15.9143C16.8887 15.9276 17.6833 15.5319 17.6833 15.0467V9.69048C17.6833 5.32012 24.8212 1.7619 33.6037 1.7619H42.4484V7.04762H37.1416C32.2667 7.04762 28.2969 9.02461 28.2969 11.4524V14.9762C28.2969 15.4614 29.0915 15.8571 30.0658 15.8571H30.0719Z" fill="white"/>
</svg>
