<svg width="42" height="43" viewBox="0 0 42 43" fill="none" xmlns="http://www.w3.org/2000/svg">
<path d="M32.9229 27.9008L31.4832 18.759L26.1911 27.8286H25.1859C24.5827 26.7788 24.3484 25.2555 24.3484 24.3074C24.3484 22.7504 24.449 21.2262 24.449 19.2292C24.449 16.5881 23.6788 15.1983 21.6351 14.6944V14.6264C25.9552 14.0167 27.9316 11.1052 27.9316 7.04238C27.9316 1.25295 24.11 0 19.1253 0H5.69332L0 27.2231H7.13389L9.21084 17.3036H13.967C16.5126 17.3036 17.551 18.5566 17.551 20.96C17.551 22.7882 17.35 24.2444 17.35 25.6317C17.35 26.1356 17.4505 27.3583 17.8185 27.8319L22.976 33.3501L18.5214 43L28.0338 37.2786L35.1344 42.7968L33.8276 33.6894L42 27.9L32.9229 27.9008ZM16.1096 12.2255H10.4155L11.7887 5.65758H17.0808C18.9567 5.65758 20.9323 6.16145 20.9323 8.46748C20.9323 11.4126 18.6884 12.2255 16.1096 12.2255Z" fill="white"/>
</svg>
