<svg width="14" height="18" viewBox="0 0 14 18" fill="none" xmlns="http://www.w3.org/2000/svg">
<path d="M13.4548 0.989576C13.448 0.690692 13.2388 0.453063 12.9876 0.458818L8.89418 0.552592C8.64299 0.558346 8.44491 0.805304 8.45175 1.10419C8.4586 1.40307 8.66778 1.6407 8.91898 1.63495L12.5576 1.55159L12.6567 5.88101C12.6636 6.17989 12.8728 6.41752 13.124 6.41177C13.3752 6.40601 13.5732 6.15906 13.5664 5.86017L13.4548 0.989576ZM8.10537 7.88958L13.3304 1.3753L12.6696 0.624693L7.44462 7.13898L8.10537 7.88958Z" fill="white"/>
<path d="M7.99065 3C6.95087 3 4.67382 3 2.99981 3C1.89524 3 1 3.89543 1 5V15C1 16.1046 1.89543 17 3 17H10C11.1046 17 12 16.1046 12 15V7.3299" stroke="white"/>
</svg>
