<svg width="169" height="24" viewBox="0 0 169 24" fill="none" xmlns="http://www.w3.org/2000/svg">
<path d="M4.15483 1.18182H9.84375L13.4339 15.8409H13.6896L22.1165 1.18182H27.8054L24.1832 23H19.7088L22.0739 8.79901H21.8821L13.9134 22.8935H10.8558L7.57457 8.74574H7.39347L5.0071 23H0.53267L4.15483 1.18182ZM49.5676 8.82031H44.9654C44.9796 8.20952 44.9015 7.66974 44.731 7.20099C44.5605 6.72514 44.3049 6.32031 43.964 5.98651C43.6301 5.6527 43.2218 5.40057 42.7388 5.23011C42.2559 5.05256 41.7125 4.96378 41.1088 4.96378C39.9441 4.96378 38.8752 5.25497 37.9022 5.83736C36.9292 6.41974 36.1088 7.26491 35.4412 8.37287C34.7736 9.47372 34.312 10.8054 34.0563 12.3679C33.8077 13.8736 33.8219 15.1342 34.0989 16.1499C34.3759 17.1655 34.8659 17.9325 35.5691 18.451C36.2793 18.9624 37.1635 19.218 38.2218 19.218C38.8752 19.218 39.4966 19.1364 40.0861 18.973C40.6756 18.8026 41.2118 18.5611 41.6948 18.2486C42.1848 17.929 42.611 17.5419 42.9732 17.0874C43.3425 16.6328 43.6301 16.1179 43.8361 15.5426H48.4703C48.1792 16.544 47.7246 17.5099 47.1067 18.4403C46.4959 19.3707 45.7395 20.2017 44.8375 20.9332C43.9355 21.6577 42.9093 22.233 41.7587 22.6591C40.6081 23.0852 39.3475 23.2983 37.9767 23.2983C35.9952 23.2983 34.2942 22.8438 32.8738 21.9347C31.4604 21.0256 30.4412 19.7152 29.8162 18.0036C29.1912 16.2919 29.074 14.2287 29.4647 11.8139C29.8553 9.47727 30.6188 7.49574 31.7551 5.86932C32.8986 4.2358 34.2871 2.99645 35.9206 2.15128C37.5613 1.30611 39.3155 0.883522 41.1834 0.883522C42.4831 0.883522 43.6586 1.06108 44.7097 1.41619C45.7608 1.77131 46.6557 2.28977 47.3944 2.97159C48.1401 3.64631 48.7012 4.47372 49.0776 5.45383C49.454 6.43395 49.6174 7.55611 49.5676 8.82031ZM54.1646 1.18182H59.8535L63.4437 15.8409H63.6994L72.1262 1.18182H77.8152L74.193 23H69.7186L72.0836 8.79901H71.8919L63.9231 22.8935H60.8656L57.5843 8.74574H57.4032L55.0169 23H50.5424L54.1646 1.18182ZM85.7919 1.18182L88.9453 8.6179H89.1158L94.7834 1.18182H100.142L91.6939 12.0909L96.669 23H91.4595L88.2209 15.5533H88.0504L82.3402 23H76.9602L85.6214 12.0909L80.7102 1.18182H85.7919ZM119.997 8.82031H115.395C115.409 8.20952 115.331 7.66974 115.161 7.20099C114.99 6.72514 114.735 6.32031 114.394 5.98651C114.06 5.6527 113.651 5.40057 113.169 5.23011C112.686 5.05256 112.142 4.96378 111.539 4.96378C110.374 4.96378 109.305 5.25497 108.332 5.83736C107.359 6.41974 106.539 7.26491 105.871 8.37287C105.203 9.47372 104.742 10.8054 104.486 12.3679C104.237 13.8736 104.252 15.1342 104.529 16.1499C104.806 17.1655 105.296 17.9325 105.999 18.451C106.709 18.9624 107.593 19.218 108.651 19.218C109.305 19.218 109.926 19.1364 110.516 18.973C111.105 18.8026 111.642 18.5611 112.124 18.2486C112.615 17.929 113.041 17.5419 113.403 17.0874C113.772 16.6328 114.06 16.1179 114.266 15.5426H118.9C118.609 16.544 118.154 17.5099 117.536 18.4403C116.926 19.3707 116.169 20.2017 115.267 20.9332C114.365 21.6577 113.339 22.233 112.188 22.6591C111.038 23.0852 109.777 23.2983 108.406 23.2983C106.425 23.2983 104.724 22.8438 103.303 21.9347C101.89 21.0256 100.871 19.7152 100.246 18.0036C99.6209 16.2919 99.5037 14.2287 99.8944 11.8139C100.285 9.47727 101.048 7.49574 102.185 5.86932C103.328 4.2358 104.717 2.99645 106.35 2.15128C107.991 1.30611 109.745 0.883522 111.613 0.883522C112.913 0.883522 114.088 1.06108 115.139 1.41619C116.191 1.77131 117.085 2.28977 117.824 2.97159C118.57 3.64631 119.131 4.47372 119.507 5.45383C119.884 6.43395 120.047 7.55611 119.997 8.82031ZM128.536 1.18182L131.072 17.7585H131.274L139.296 1.18182H144.41L133.266 23H127.322L123.412 1.18182H128.536ZM151.649 1.18182L148.026 23H143.414L147.036 1.18182H151.649ZM160.057 1.18182L156.435 23H151.822L155.444 1.18182H160.057ZM168.465 1.18182L164.843 23H160.23L163.852 1.18182H168.465Z" fill="white"/>
</svg>
