<svg width="25" height="23" viewBox="0 0 25 23" fill="none" xmlns="http://www.w3.org/2000/svg">
<path fill-rule="evenodd" clip-rule="evenodd" d="M12.5 0C5.625 0 0 5.175 0 11.5C0 17.825 5.625 23 12.5 23C19.375 23 25 17.825 25 11.5C25 5.175 19.375 0 12.5 0ZM22.375 10.35H18C17.75 7.935 16.875 5.29 15 2.645C19 3.565 21.875 6.67 22.375 10.35ZM15.5 10.35H9.25C9.25 9.89 9.375 9.545 9.375 9.085C9.75 6.44 11 4.37 12.25 2.875C14.375 5.635 15.25 8.165 15.5 10.35ZM9.5 2.76C8.375 4.37 7.375 6.44 7 8.855C6.875 9.315 6.875 9.89 6.875 10.465H2.625C3.125 6.785 5.875 3.795 9.5 2.76ZM2.625 12.65H7C7.25 15.065 8.125 17.71 10 20.355C6 19.435 3.125 16.33 2.625 12.65ZM9.375 12.65H15.625C15.625 13.11 15.5 13.455 15.5 13.915C15.125 16.56 13.875 18.63 12.625 20.125C10.625 17.365 9.75 14.835 9.375 12.65ZM15.5 20.24C16.625 18.63 17.625 16.56 18 14.145C18.125 13.685 18.125 13.11 18.125 12.535H22.375C21.875 16.215 19.125 19.205 15.5 20.24Z" fill="white"/>
</svg>
