<svg width="39" height="37" viewBox="0 0 39 37" fill="none" xmlns="http://www.w3.org/2000/svg">
<path d="M34.7121 0H4.22787C3.10703 0.00192356 2.03254 0.567087 1.23999 1.57157C0.44744 2.57605 0.00151772 3.93787 0 5.35842V28.5443C0.00151772 29.9649 0.44744 31.3267 1.23999 32.3312C2.03254 33.3356 3.10703 33.9008 4.22787 33.9027H31.0522C31.2043 33.9027 31.3502 33.8261 31.4578 33.6898C31.5654 33.5534 31.6258 33.3685 31.6258 33.1757C31.6258 32.9828 31.5654 32.7979 31.4578 32.6616C31.3502 32.5252 31.2043 32.4486 31.0522 32.4486H4.22787C3.4098 32.4467 2.62567 32.034 2.04721 31.3008C1.46875 30.5677 1.1431 29.5739 1.14158 28.537V5.35842C1.14158 4.32101 1.46674 3.32608 2.04553 2.59252C2.62433 1.85896 3.40933 1.44685 4.22787 1.44685H34.7121C35.5307 1.44685 36.3157 1.85896 36.8945 2.59252C37.4733 3.32608 37.7984 4.32101 37.7984 5.35842V28.5443C37.7969 29.5811 37.4713 30.5749 36.8928 31.3081C36.3143 32.0412 35.5302 32.454 34.7121 32.4559H33.4902C33.3381 32.4559 33.1922 32.5325 33.0846 32.6688C32.977 32.8052 32.9166 32.9901 32.9166 33.1829C32.9166 33.3758 32.977 33.5607 33.0846 33.6971C33.1922 33.8334 33.3381 33.91 33.4902 33.91H34.7121C35.833 33.9081 36.9075 33.3429 37.7 32.3384C38.4926 31.334 38.9385 29.9721 38.94 28.5516V5.35842C38.9385 3.93787 38.4926 2.57605 37.7 1.57157C36.9075 0.567087 35.833 0.00192356 34.7121 0Z" fill="white"/>
<path d="M31.0522 35.5459H7.88781C7.73566 35.5459 7.58975 35.6225 7.48217 35.7588C7.37459 35.8952 7.31415 36.0801 7.31415 36.273C7.31415 36.4658 7.37459 36.6507 7.48217 36.7871C7.58975 36.9234 7.73566 37 7.88781 37H31.0522C31.2043 37 31.3502 36.9234 31.4578 36.7871C31.5654 36.6507 31.6258 36.4658 31.6258 36.273C31.6258 36.0801 31.5654 35.8952 31.4578 35.7588C31.3502 35.6225 31.2043 35.5459 31.0522 35.5459Z" fill="white"/>
<path d="M15.4716 10.2516C15.5677 10.1821 15.6764 10.1456 15.7871 10.1456C15.8977 10.1456 16.0065 10.1821 16.1026 10.2516L17.3876 11.0659C17.5225 11.1499 17.678 11.1634 17.8207 11.1036C17.9633 11.0437 18.0818 10.9153 18.1506 10.746C18.2199 10.5769 18.2341 10.3801 18.1901 10.1979C18.1461 10.0157 18.0475 9.86267 17.9154 9.77173L16.6304 8.95743C16.3572 8.78585 16.0541 8.70523 15.7496 8.72315C15.4451 8.74108 15.1492 8.85697 14.8898 9.0599C14.6304 9.26283 14.4161 9.54612 14.2669 9.88308C14.1178 10.22 14.0388 10.5996 14.0374 10.9859V22.9533C14.0367 23.3398 14.1145 23.72 14.2631 24.0574C14.4118 24.3948 14.6265 24.678 14.8864 24.88C15.1432 25.0797 15.4357 25.1938 15.7366 25.2116C16.0375 25.2294 16.3371 25.1504 16.6074 24.9818L26.0728 18.9836C26.3714 18.7958 26.6227 18.5061 26.7984 18.1471C26.9741 17.788 27.0672 17.3739 27.0672 16.9514C27.0672 16.5289 26.9741 16.1149 26.7984 15.7558C26.6227 15.3968 26.3714 15.1071 26.0728 14.9193L20.3362 11.284C20.2007 11.1978 20.0438 11.183 19.8998 11.243C19.7557 11.3029 19.6363 11.4327 19.5675 11.6039C19.4999 11.7765 19.4891 11.9761 19.5375 12.1588C19.5859 12.3414 19.6895 12.4923 19.8256 12.5782L25.5622 16.2135C25.6668 16.2832 25.7543 16.3877 25.8153 16.5159C25.8763 16.644 25.9086 16.7908 25.9086 16.9405C25.9086 17.0902 25.8763 17.237 25.8153 17.3652C25.7543 17.4933 25.6668 17.5979 25.5622 17.6676L16.0969 23.6658C15.9982 23.7269 15.889 23.7555 15.7794 23.749C15.6697 23.7425 15.5631 23.7011 15.4694 23.6287C15.3757 23.5563 15.2979 23.4551 15.2431 23.3345C15.1883 23.214 15.1584 23.0779 15.1561 22.9388V10.9496C15.1512 10.8042 15.1774 10.66 15.232 10.532C15.2865 10.404 15.3673 10.2971 15.4658 10.2225L15.4716 10.2516Z" fill="white"/>
</svg>
